<svg version="1.0" viewBox="0 0 96 96" xmlns="http://www.w3.org/2000/svg">
<metadata>Created by potrace 1.16, written by Peter Selinger 2001-2019</metadata>
<g transform="translate(0 96) scale(.1 -.1)">
<path d="m197 913c-2-4-14-38-26-75l-22-67-72-24c-62-20-72-27-72-47s10-27 72-47l72-24 24-72c20-62 27-72 47-72s27 10 47 72l24 72 72 24c62 20 72 27 72 47s-10 27-72 47l-72 24-24 72c-18 56-28 73-44 75-12 2-23 0-26-5z"/>
<path d="m583 718c-11-24-32-75-48-114l-29-70-110-46c-94-39-111-49-111-68s17-29 111-68l110-46 46-110c39-94 49-111 68-111s29 17 68 111l46 110 110 46c94 39 111 49 111 68s-17 29-111 68l-110 46-46 110c-54 131-74 145-105 74z"/>
<path d="m197 313c-2-4-10-25-16-45-10-30-19-39-54-51-33-11-42-18-42-37s9-26 42-37c36-12 44-20 56-56 11-33 18-42 37-42s26 9 37 42c12 36 20 44 56 56 33 11 42 18 42 37s-9 26-42 37c-36 12-44 20-56 56-9 29-20 43-34 45-12 2-23 0-26-5z"/>
</g>
</svg>
